<svg xmlns="http://www.w3.org/2000/svg" width="256" height="256" viewBox="0 0 256 256" role="img" aria-label="Ted's Cards">
  <defs>
    <linearGradient id="homeGrad" x1="0" y1="0" x2="1" y2="1">
      <stop offset="0" stop-color="#5a97dd"/>
      <stop offset="1" stop-color="#8a5fd0"/>
    </linearGradient>
    <linearGradient id="tGrad" x1="0" y1="0" x2="1" y2="1">
      <stop offset="0" stop-color="#3f7fc4"/>
      <stop offset="1" stop-color="#6b57c0"/>
    </linearGradient>
    <filter id="fanShadow" x="-25%" y="-25%" width="150%" height="150%">
      <feDropShadow dx="0" dy="5" stdDeviation="6" flood-color="#000" flood-opacity="0.42"/>
    </filter>
    <clipPath id="cardClip"><rect x="70" y="72" width="100" height="142" rx="14"/></clipPath>
    <pattern id="backBlue" width="13" height="13" patternUnits="userSpaceOnUse" patternTransform="rotate(45)">
      <path d="M6.5 0 V13 M0 6.5 H13" stroke="#c3d5f0" stroke-width="1.1" fill="none"/>
    </pattern>
    <pattern id="backPurple" width="13" height="13" patternUnits="userSpaceOnUse" patternTransform="rotate(45)">
      <path d="M6.5 0 V13 M0 6.5 H13" stroke="#d3c3f0" stroke-width="1.1" fill="none"/>
    </pattern>
  </defs>

  <g transform="translate(-12 -14)" filter="url(#fanShadow)">
    <!-- back card B (furthest, fanned most to the right) -->
    <g transform="rotate(25 120 214)">
      <rect x="70" y="72" width="100" height="142" rx="14" fill="#f1eafc"/>
      <g clip-path="url(#cardClip)"><rect x="70" y="72" width="100" height="142" fill="url(#backPurple)"/></g>
      <rect x="70" y="72" width="100" height="142" rx="14" fill="none" stroke="#d5c9e8" stroke-width="1.5"/>
    </g>
    <!-- back card A -->
    <g transform="rotate(11 120 214)">
      <rect x="70" y="72" width="100" height="142" rx="14" fill="#e9f1fc"/>
      <g clip-path="url(#cardClip)"><rect x="70" y="72" width="100" height="142" fill="url(#backBlue)"/></g>
      <rect x="70" y="72" width="100" height="142" rx="14" fill="none" stroke="#cbd6ea" stroke-width="1.5"/>
    </g>
    <!-- front card (decorated) -->
    <g transform="rotate(-7 120 214)">
      <rect x="70" y="72" width="100" height="142" rx="14" fill="#fcfdff" stroke="#d7dde4" stroke-width="1.5"/>
      <!-- corner indices -->
      <text x="82" y="102" font-family="Georgia, 'Times New Roman', serif" font-weight="700" font-size="24" fill="url(#tGrad)">T</text>
      <g transform="rotate(180 152 190)">
        <text x="144" y="198" font-family="Georgia, 'Times New Roman', serif" font-weight="700" font-size="24" fill="url(#tGrad)">T</text>
      </g>
      <!-- home glyph -->
      <path d="M120 110 L152 146 H88 Z" fill="url(#homeGrad)"/>
      <rect x="98" y="144" width="44" height="34" rx="4" fill="url(#homeGrad)"/>
      <rect x="112" y="158" width="14" height="20" rx="2.5" fill="#fcfdff"/>
    </g>
  </g>
</svg>
